<?xml version="1.0" standalone="no"?>
<!DOCTYPE svg PUBLIC "-//W3C//DTD SVG 20010904//EN"
 "http://www.w3.org/TR/2001/REC-SVG-20010904/DTD/svg10.dtd">
<svg version="1.0" xmlns="http://www.w3.org/2000/svg"
 width="1500.000000pt" height="900.000000pt" viewBox="0 0 1500.000000 900.000000"
 preserveAspectRatio="xMidYMid meet">

<g transform="translate(0.000000,900.000000) scale(0.100000,-0.100000)"
fill="#000000" stroke="none">
<path d="M9703 6740 c-12 -5 -29 -19 -37 -32 -27 -41 -85 -275 -153 -612 -54
-270 -63 -330 -52 -337 28 -17 36 -8 49 51 13 61 33 100 42 84 6 -10 -76 -377
-152 -673 -42 -167 -112 -401 -136 -458 -8 -19 37 -28 48 -9 5 9 13 16 18 16
20 0 -41 -116 -77 -147 -32 -27 -35 -33 -23 -48 7 -9 19 -14 27 -11 7 3 13 0
13 -8 0 -7 -58 -257 -130 -555 -71 -299 -130 -549 -130 -557 0 -8 4 -14 9 -14
5 0 16 -3 25 -6 9 -3 16 -2 16 4 0 18 80 185 86 179 4 -3 -19 -90 -51 -193
-54 -179 -56 -189 -39 -201 16 -12 21 -11 32 4 7 10 15 28 19 41 8 34 35 29
27 -5 -25 -112 -56 -225 -69 -256 -14 -35 -14 -37 6 -47 11 -7 22 -10 23 -8 2
2 90 249 195 550 105 301 201 569 213 595 35 78 32 26 -5 -98 -85 -282 -127
-503 -133 -699 l-5 -145 35 39 c39 43 52 44 36 2 -15 -40 -12 -128 5 -153 24
-34 49 -19 69 40 96 294 222 747 326 1169 59 241 72 282 98 314 29 35 30 38
15 61 -10 16 -14 37 -11 66 6 44 66 197 78 197 4 0 10 -44 13 -97 6 -97 99
-578 118 -614 17 -33 27 -20 18 25 -10 52 -15 183 -8 190 7 7 95 -400 124
-569 36 -220 48 -357 40 -482 -7 -123 4 -181 50 -273 29 -57 101 -130 160
-161 43 -23 44 -23 64 -5 17 15 21 31 21 80 0 86 22 59 29 -36 6 -73 6 -73 41
-85 101 -34 202 4 269 100 16 23 52 94 80 157 44 97 80 219 230 780 l179 665
5 145 c6 155 36 351 86 569 17 73 31 149 31 169 0 60 27 201 89 462 101 423
93 562 -33 586 -83 15 -173 -45 -256 -172 -25 -39 -51 -69 -56 -67 -6 2 -16
-22 -23 -53 -7 -31 -19 -72 -27 -90 -12 -30 -17 -33 -34 -24 -23 12 -28 5 -69
-112 -110 -307 -202 -763 -286 -1403 -24 -182 -54 -338 -69 -353 -17 -16 -12
23 26 211 22 114 39 209 37 211 -2 2 -14 6 -26 10 -20 6 -23 0 -46 -101 -14
-59 -36 -160 -48 -223 -21 -103 -24 -111 -31 -80 -4 19 -33 152 -63 294 -61
280 -112 472 -149 552 -13 28 -63 213 -111 410 -48 197 -91 363 -96 369 -5 5
-9 -8 -9 -33 0 -23 -4 -42 -8 -42 -5 0 -12 73 -15 163 -9 231 -41 398 -115
590 -31 81 -19 72 -207 153 -112 49 -188 63 -232 44z"/>
<path d="M6476 6488 c-134 -141 -257 -337 -336 -530 -23 -55 -50 -83 -35 -35
14 47 18 72 8 62 -5 -5 -107 -136 -225 -290 -119 -154 -249 -314 -290 -355
-84 -85 -231 -272 -398 -507 -63 -89 -115 -161 -117 -160 -1 2 68 340 81 390
4 15 -1 18 -22 15 -22 -3 -27 -10 -37 -53 -12 -55 -31 -95 -44 -95 -8 0 3 73
27 178 l10 42 -44 32 c-52 37 -51 23 -24 253 25 219 26 215 -4 215 -29 0 -34
-15 -43 -137 -3 -51 -9 -93 -13 -93 -4 0 -12 17 -18 37 -10 34 -6 57 45 241
55 196 56 205 46 265 -6 36 -7 66 -2 71 5 6 9 29 9 53 0 32 -5 45 -20 53 -11
6 -22 25 -25 48 -19 117 -86 194 -201 232 -80 27 -113 27 -229 1 -98 -22 -97
-21 -153 -121 -76 -135 -232 -518 -232 -569 0 -11 9 -26 21 -34 l20 -15 -30
-88 c-40 -115 -69 -145 -36 -36 6 19 4 22 -22 22 -25 0 -32 -7 -52 -47 -25
-52 -259 -428 -524 -843 -154 -242 -209 -322 -178 -263 17 34 13 43 -19 43
-24 0 -30 -4 -30 -21 0 -11 -66 -139 -146 -282 -80 -144 -185 -340 -232 -436
-109 -218 -110 -226 -36 -370 52 -99 52 -100 32 -118 -25 -22 -88 -129 -88
-149 0 -24 18 -16 93 41 39 30 75 55 79 55 5 0 8 -13 8 -30 0 -20 5 -30 15
-30 8 0 15 9 15 20 0 11 5 20 10 20 13 0 14 3 -15 -68 -30 -74 -32 -112 -6
-143 l19 -23 40 28 c31 21 63 66 139 192 68 114 99 159 101 145 4 -27 11 -26
43 2 152 131 366 515 544 977 26 69 51 129 56 134 20 22 18 -7 -4 -88 l-25
-86 22 0 c17 0 32 22 79 123 32 68 129 260 216 428 190 364 196 370 195 184 0
-98 -5 -137 -27 -212 -40 -140 -81 -384 -67 -393 9 -5 9 -9 1 -11 -7 -3 -14
-79 -21 -224 -16 -351 -13 -452 11 -531 24 -78 71 -134 113 -134 14 0 26 -5
26 -10 0 -32 66 -175 94 -205 39 -41 88 -48 106 -15 15 28 47 25 81 -9 26 -26
29 -36 29 -90 l0 -61 30 0 30 0 0 117 c0 93 3 114 12 105 9 -9 14 -65 18 -175
5 -159 5 -162 28 -165 22 -3 22 -2 22 127 0 71 4 132 9 136 5 3 20 31 32 63
17 46 23 88 28 217 7 152 8 164 40 235 73 165 240 430 451 718 62 84 114 151
117 149 5 -6 -55 -125 -88 -174 -16 -25 -17 -33 -7 -33 27 0 347 454 385 545
10 25 21 45 26 45 10 0 8 -147 -2 -194 -5 -21 -21 -50 -34 -65 -24 -24 -25
-29 -15 -71 9 -39 5 -79 -31 -275 -72 -402 -128 -774 -167 -1102 -15 -128 -15
-144 -1 -164 l16 -22 35 35 c23 23 37 48 41 74 3 21 10 48 14 59 7 17 10 13
20 -22 7 -24 16 -43 20 -43 12 0 74 149 106 252 35 116 79 332 100 493 21 163
23 175 35 175 14 0 14 -4 -38 -642 l-47 -578 27 0 28 0 0 73 c0 39 7 101 15
137 8 36 17 75 20 88 9 38 25 24 25 -23 0 -41 2 -45 23 -45 23 0 24 4 47 190
13 105 27 190 32 190 4 0 8 -45 8 -100 0 -99 0 -100 24 -100 15 0 27 7 30 18
3 9 48 258 101 552 53 294 98 541 100 547 3 10 10 10 30 1 35 -16 41 -5 16 30
-16 23 -21 45 -21 96 0 37 4 66 10 66 6 0 10 -9 10 -20 0 -15 7 -20 25 -20 23
0 25 3 25 49 0 161 159 1069 189 1079 14 5 14 -9 -5 -110 -6 -36 -5 -38 18
-38 24 0 26 7 67 183 64 271 109 498 126 625 18 132 11 157 -52 188 -32 16
-66 20 -209 22 l-171 3 -87 -93z m-2390 -1114 c-7 -18 -36 -18 -36 0 0 8 8 22
18 32 16 17 17 17 20 0 2 -9 1 -24 -2 -32z m-385 -1309 c-27 -48 -53 -100 -56
-116 -6 -27 -25 -41 -25 -18 0 44 111 242 127 226 2 -3 -18 -44 -46 -92z
m-177 -136 c-31 -87 -64 -146 -100 -180 l-26 -24 20 50 c54 136 115 246 128
232 3 -2 -7 -37 -22 -78z m-274 -293 c0 -7 -5 -27 -11 -45 -12 -35 -35 -44
-24 -8 3 12 9 32 12 45 6 24 23 31 23 8z"/>
<path d="M3005 6488 c-2 -7 -9 -38 -15 -68 -20 -102 -58 -114 -143 -45 -63 51
-104 58 -136 24 -18 -19 -41 -96 -41 -134 0 -8 -7 -15 -15 -15 -12 0 -15 13
-15 60 0 57 -1 60 -24 60 -21 0 -25 -6 -30 -40 -3 -22 -9 -58 -12 -80 -6 -41
-24 -56 -24 -20 0 13 -7 20 -20 20 -23 0 -26 -12 -35 -123 l-7 -78 -34 7 -34
6 0 -43 c0 -69 -38 -381 -55 -455 -8 -37 -24 -82 -35 -99 -14 -22 -31 -99 -54
-246 -55 -339 -60 -379 -47 -423 9 -35 6 -55 -23 -160 -179 -639 -239 -978
-205 -1170 8 -52 7 -74 -11 -150 l-20 -89 20 -14 c18 -13 20 -25 20 -129 0
-92 3 -114 14 -114 31 0 91 167 156 434 21 87 41 161 44 164 16 15 15 -15 -4
-106 -25 -125 -25 -139 1 -147 14 -5 18 -12 14 -23 -20 -52 -68 -277 -90 -421
-38 -253 -37 -231 -14 -231 11 0 28 14 39 33 31 50 98 263 116 362 8 50 31
128 51 175 86 206 151 430 211 730 16 80 59 237 95 350 268 839 424 1469 444
1797 6 101 6 103 -15 103 -20 0 -22 -5 -22 -65 0 -37 -4 -65 -10 -65 -13 0
-12 102 1 159 7 33 7 46 -2 51 -9 6 -9 28 0 91 9 60 9 92 2 112 -11 28 -29 36
-36 15z"/>
<path d="M8410 6444 c-84 -17 -119 -29 -132 -44 -48 -59 -174 -333 -254 -555
-40 -110 -42 -121 -28 -142 8 -13 19 -23 24 -23 13 0 5 -35 -32 -132 -17 -43
-34 -78 -40 -78 -6 0 -8 11 -4 25 20 82 21 77 -7 73 -23 -3 -73 -79 -398 -618
-204 -338 -375 -619 -379 -624 -6 -5 -15 -4 -23 3 -30 25 -95 -105 -212 -424
-49 -132 -122 -321 -163 -420 -44 -105 -75 -193 -74 -212 0 -17 10 -52 21 -77
11 -25 15 -46 10 -46 -5 0 -32 -35 -59 -77 -77 -120 -65 -146 30 -67 30 25 67
52 83 60 l27 15 0 -36 c0 -24 5 -35 15 -35 9 0 15 9 15 25 0 14 5 25 10 25 14
0 13 -8 -15 -75 -13 -33 -25 -74 -25 -90 0 -30 23 -75 40 -75 4 0 31 18 58 39
40 32 68 70 138 192 48 84 90 147 92 141 9 -27 44 -8 101 54 83 91 168 222
257 397 l75 147 329 0 c321 0 330 -1 349 -21 24 -26 39 -86 48 -184 3 -41 8
-75 10 -75 2 0 12 4 22 10 17 8 19 1 24 -88 9 -162 59 -277 138 -318 32 -16
69 -5 69 21 0 19 33 19 69 0 34 -17 51 -59 51 -126 0 -46 2 -49 25 -49 l25 0
0 120 c0 66 4 120 9 120 17 0 31 -100 31 -225 l0 -125 25 0 25 0 0 124 c0 107
3 130 20 159 48 81 50 117 50 985 l0 812 -22 0 -21 0 6 218 c4 119 14 273 22
342 19 159 19 150 -9 150 -23 0 -24 -4 -46 -172 -26 -201 -45 -247 -37 -88 7
113 29 232 79 405 28 102 30 115 21 180 -6 39 -6 74 -2 79 17 19 9 67 -20 122
-17 30 -33 75 -37 100 -10 72 -73 121 -229 179 l-60 23 -115 -24z m-520 -1068
c0 -16 -26 -46 -41 -46 -13 0 -11 34 3 48 16 16 38 15 38 -2z m405 -348 c28
-70 61 -548 37 -548 -9 0 -12 45 -12 155 l0 155 -25 0 c-25 0 -25 0 -25 -97 0
-72 -4 -101 -15 -113 -8 -9 -21 -40 -27 -68 -12 -49 -14 -52 -45 -52 -22 0
-33 6 -38 19 -7 23 -80 54 -106 46 -12 -4 -22 -19 -26 -36 -4 -20 -12 -29 -24
-29 -11 0 -19 2 -19 5 0 14 296 595 303 595 4 0 14 -15 22 -32z m-105 -678 c0
-6 -40 -10 -100 -10 -60 0 -100 4 -100 10 0 6 40 10 100 10 60 0 100 -4 100
-10z m-895 -500 c-26 -77 -57 -135 -99 -185 -37 -44 -32 -18 18 96 41 92 92
176 102 166 2 -2 -7 -37 -21 -77z m-285 -306 c0 -19 -24 -84 -32 -84 -11 0
-10 18 4 57 10 29 28 45 28 27z"/>
<path d="M9430 5664 c-11 -27 -13 -44 -6 -44 2 0 11 -3 20 -6 10 -4 20 5 30
25 15 28 15 31 -3 41 -28 14 -30 13 -41 -16z"/>
<path d="M6750 5455 c0 -31 3 -35 25 -35 22 0 25 4 25 35 0 31 -3 35 -25 35
-22 0 -25 -4 -25 -35z"/>
<path d="M9297 5133 c-13 -12 -7 -51 9 -67 21 -21 31 -20 44 5 19 34 -28 88
-53 62z"/>
<path d="M6656 4934 c-21 -20 -21 -64 0 -64 32 0 54 20 54 50 0 23 -5 30 -19
30 -11 0 -27 -7 -35 -16z"/>
<path d="M7125 4424 c-21 -50 -19 -64 8 -64 17 0 26 9 35 33 17 48 15 67 -8
67 -13 0 -25 -12 -35 -36z"/>
<path d="M5710 3025 c0 -31 3 -35 25 -35 22 0 25 4 25 35 0 31 -3 35 -25 35
-22 0 -25 -4 -25 -35z"/>
<path d="M9400 2949 c-11 -26 -11 -32 1 -40 24 -15 34 -10 46 21 10 26 9 32
-7 40 -26 14 -26 14 -40 -21z"/>
</g>
</svg>
