<?xml version="1.0" standalone="no"?>
<!DOCTYPE svg PUBLIC "-//W3C//DTD SVG 20010904//EN"
 "http://www.w3.org/TR/2001/REC-SVG-20010904/DTD/svg10.dtd">
<svg version="1.0" xmlns="http://www.w3.org/2000/svg"
 width="3000.000000pt" height="3000.000000pt" viewBox="0 0 3000.000000 3000.000000"
 preserveAspectRatio="xMidYMid meet">

<g transform="translate(0.000000,3000.000000) scale(0.100000,-0.100000)"
fill="#000000" stroke="none">
<path d="M6095 19829 c-1031 -79 -1965 -456 -2770 -1120 -159 -131 -516 -496
-651 -664 -251 -315 -438 -611 -603 -956 -466 -977 -590 -2088 -352 -3151 364
-1625 1551 -2953 3131 -3503 701 -244 1507 -323 2245 -219 1333 186 2521 911
3293 2011 l87 124 3 -866 2 -865 1200 0 1200 0 2 2393 3 2392 1860 -2390 1860
-2390 2415 0 2415 0 5 2774 5 2775 673 -1138 672 -1137 0 -1640 0 -1639 1190
0 1190 0 0 1658 0 1657 1536 2580 c845 1419 1571 2640 1614 2713 l79 132
-1321 -2 -1321 -3 -868 -1568 c-477 -863 -874 -1577 -881 -1587 -12 -17 -110
157 -884 1568 l-872 1587 -406 3 -406 2 0 30 0 30 -1066 0 -1066 0 -277 -75
c-153 -41 -283 -75 -289 -75 -8 0 -12 17 -12 45 l0 45 -1195 0 -1195 0 0
-2307 -1 -2308 -27 30 c-15 17 -823 1055 -1797 2308 l-1770 2277 -1132 0
-1133 0 -2 -850 -3 -851 -87 124 c-677 957 -1649 1625 -2781 1911 -203 52
-408 88 -648 117 -201 23 -666 34 -864 18z m610 -240 c829 -54 1594 -312 2276
-765 1070 -712 1803 -1868 1989 -3137 40 -271 45 -350 45 -682 0 -390 -18
-579 -86 -915 -179 -886 -613 -1693 -1254 -2335 -1223 -1222 -3029 -1654
-4671 -1117 -773 254 -1479 719 -2013 1328 -643 733 -1018 1589 -1128 2574
-12 114 -17 237 -17 465 0 324 11 479 55 745 196 1187 842 2239 1819 2959 849
627 1941 949 2985 880z m14355 -4564 l0 -4025 -1145 0 -1145 0 0 2990 0 2990
-22 -5 c-181 -44 -1385 -301 -1389 -296 -8 8 -439 1672 -439 1694 0 9 10 19
23 22 12 3 560 151 1217 329 l1195 324 853 1 852 1 0 -4025z"/>
<path d="M6220 19399 c-878 -42 -1721 -344 -2425 -869 -721 -536 -1269 -1292
-1550 -2135 -173 -521 -245 -1033 -224 -1600 33 -872 339 -1739 864 -2444 293
-395 670 -755 1075 -1029 486 -328 1034 -556 1615 -671 316 -63 454 -75 845
-76 372 0 448 5 730 51 687 111 1335 385 1910 807 388 285 777 693 1045 1097
350 526 580 1105 684 1720 45 261 55 403 55 730 1 382 -17 567 -85 905 -109
537 -334 1077 -642 1540 -715 1074 -1852 1781 -3130 1945 -138 17 -515 42
-587 38 -14 0 -95 -4 -180 -9z m479 -2514 c258 -37 514 -129 738 -266 245
-150 487 -396 641 -651 275 -455 344 -1024 188 -1540 -180 -593 -645 -1069
-1236 -1264 -548 -182 -1162 -100 -1649 219 -455 299 -763 780 -847 1325 -21
142 -22 412 0 552 125 810 726 1446 1518 1604 160 32 163 33 368 34 108 1 214
-4 279 -13z"/>
<path d="M6322 15184 c-221 -110 -140 -444 108 -444 96 0 171 43 211 122 106
207 -110 426 -319 322z"/>
</g>
</svg>
