<?xml version="1.0" standalone="no"?>
<!DOCTYPE svg PUBLIC "-//W3C//DTD SVG 20010904//EN"
 "http://www.w3.org/TR/2001/REC-SVG-20010904/DTD/svg10.dtd">
<svg version="1.0" xmlns="http://www.w3.org/2000/svg"
 width="3000.000000pt" height="3000.000000pt" viewBox="0 0 3000.000000 3000.000000"
 preserveAspectRatio="xMidYMid meet">

<g transform="translate(0.000000,3000.000000) scale(0.100000,-0.100000)"
fill="#000000" stroke="none">
<path d="M6095 19829 c-1031 -79 -1965 -456 -2770 -1120 -159 -131 -516 -496
-651 -664 -251 -315 -438 -611 -603 -956 -466 -977 -590 -2088 -352 -3151 364
-1625 1551 -2953 3131 -3503 701 -244 1507 -323 2245 -219 1333 186 2521 911
3293 2011 l87 124 3 -866 2 -865 1200 0 1200 0 2 2393 3 2392 1860 -2390 1860
-2390 2415 0 2415 0 5 2774 5 2775 673 -1138 672 -1137 0 -1640 0 -1639 1190
0 1190 0 0 1658 0 1657 1536 2580 c845 1419 1571 2640 1614 2713 l79 132
-1321 -2 -1321 -3 -868 -1568 c-477 -863 -874 -1577 -881 -1587 -12 -17 -110
157 -884 1568 l-872 1587 -406 3 -406 2 0 30 0 30 -1066 0 -1066 0 -277 -75
c-153 -41 -283 -75 -289 -75 -8 0 -12 17 -12 45 l0 45 -1195 0 -1195 0 0
-2307 -1 -2308 -27 30 c-15 17 -823 1055 -1797 2308 l-1770 2277 -1132 0
-1133 0 -2 -850 -3 -851 -87 124 c-677 957 -1649 1625 -2781 1911 -203 52
-408 88 -648 117 -201 23 -666 34 -864 18z m550 -239 c533 -28 994 -127 1475
-317 1051 -415 1929 -1224 2430 -2238 235 -476 379 -969 446 -1515 22 -181 30
-663 15 -857 -38 -477 -138 -912 -308 -1343 -458 -1164 -1413 -2123 -2567
-2579 -1394 -552 -2929 -403 -4191 404 -263 169 -510 370 -755 615 -457 456
-790 961 -1023 1550 -218 552 -319 1083 -321 1685 0 442 44 788 155 1205 286
1075 979 2031 1915 2643 704 460 1524 722 2349 750 44 2 105 4 135 5 30 1 141
-3 245 -8z m14415 -4565 l0 -4025 -1145 0 -1145 0 0 2990 0 2990 -22 -5 c-181
-44 -1385 -301 -1389 -296 -8 8 -439 1672 -439 1694 0 9 10 19 23 22 12 3 560
151 1217 329 l1195 324 853 1 852 1 0 -4025z"/>
<path d="M6220 19404 c-1126 -66 -2129 -511 -2911 -1293 -731 -732 -1162
-1641 -1276 -2691 -23 -213 -22 -658 1 -870 87 -802 353 -1507 808 -2143 276
-385 664 -769 1054 -1043 920 -645 2057 -915 3173 -753 1255 182 2368 894
3064 1961 159 244 284 483 395 759 621 1537 321 3325 -765 4559 -754 856
-1753 1374 -2890 1495 -137 15 -529 26 -653 19z m430 -2514 c524 -65 994 -333
1307 -745 433 -571 511 -1334 203 -1982 -453 -953 -1594 -1360 -2545 -909
-587 279 -984 818 -1079 1467 -20 135 -20 391 -1 528 77 542 378 1023 830
1326 121 81 312 177 446 223 101 36 289 79 391 91 107 12 351 13 448 1z"/>
<path d="M6380 15208 c-60 -11 -118 -53 -155 -113 -26 -42 -30 -58 -30 -119 0
-86 27 -143 92 -192 197 -150 464 67 359 291 -48 103 -151 155 -266 133z"/>
</g>
</svg>
